<?xml version="1.0" encoding="UTF-8" standalone="no"?>
<!-- Created with Inkscape (http://www.inkscape.org/) -->

<svg
   width="52.592796mm"
   height="27.910795mm"
   viewBox="0 0 52.592796 27.910795"
   version="1.1"
   id="svg1"
   xml:space="preserve"
   xmlns="http://www.w3.org/2000/svg"
   xmlns:svg="http://www.w3.org/2000/svg"><defs
     id="defs1" /><g
     id="layer1"
     transform="translate(-412.29851,-66.841639)"><g
       id="g1"
       transform="matrix(0.26458333,0,0,0.26458333,395.10059,34.151361)"><g
         fill="#205c40"
         fill-rule="nonzero"
         stroke="none"
         stroke-width="2.11293"
         stroke-linecap="butt"
         stroke-linejoin="miter"
         stroke-miterlimit="10"
         stroke-dasharray="none"
         stroke-dashoffset="0"
         font-family="none"
         font-weight="none"
         font-size="none"
         text-anchor="none"
         style="mix-blend-mode:normal;fill:#ffffff"
         id="g13"
         transform="matrix(0.473276,0,0,0.473276,34.23706,65.078757)"><g
           data-paper-data="{&quot;isGlobalGroup&quot;:true,&quot;bounds&quot;:{&quot;x&quot;:65,&quot;y&quot;:123.5538149442128,&quot;width&quot;:420,&quot;height&quot;:222.89237011157437}}"
           id="g12"
           style="fill:#ffffff;stroke-width:2.11293"><g
             data-paper-data="{&quot;isPrimaryText&quot;:true}"
             id="g10"
             style="fill:#ffffff;stroke-width:2.11293"><path
               d="m 107.36448,307.58447 h -7.66821 l -12.11766,20.40122 -1.3727,3.36076 H 86.11124 L 84.64387,327.98569 72.57354,307.58447 H 65 v 38.38837 h 9.23025 v -20.35388 h 0.09467 l 1.84605,4.02344 9.94027,16.80379 h 0.142 l 9.94027,-16.80379 1.84605,-4.02344 h 0.09467 v 20.35388 h 9.23025 z"
               data-paper-data="{&quot;glyphName&quot;:&quot;M&quot;,&quot;glyphIndex&quot;:0,&quot;firstGlyphOfWord&quot;:true,&quot;word&quot;:1}"
               id="path1"
               style="fill:#ffffff;stroke-width:2.11293" /><path
               d="m 129.99042,329.59506 0.99403,-0.85202 2.88741,-5.96416 1.42004,-3.88144 1.42004,3.88144 2.93475,5.96416 0.94669,0.85202 z m 9.23025,-22.01059 h -7.81021 l -19.07585,38.34103 h 10.17694 l 4.02344,-8.28356 -0.56802,-0.85202 h 18.6025 l -0.56802,0.85202 4.11811,8.28356 h 10.08227 z"
               data-paper-data="{&quot;glyphName&quot;:&quot;A&quot;,&quot;glyphIndex&quot;:1,&quot;word&quot;:1}"
               id="path2"
               style="fill:#ffffff;stroke-width:2.11293" /><path
               d="m 188.25933,307.58447 -8.70957,11.40764 -2.17739,3.59743 h -0.0947 l -2.17739,-3.59743 -8.66223,-11.40764 h -11.54964 l 17.79781,22.62594 v 15.71509 h 9.27758 v -15.71509 l 17.79781,-22.62594 z"
               data-paper-data="{&quot;glyphName&quot;:&quot;Y&quot;,&quot;glyphIndex&quot;:2,&quot;word&quot;:1}"
               id="path3"
               style="fill:#ffffff;stroke-width:2.11293" /><path
               d="m 233.98456,333.19249 c -2.22473,3.17142 -6.39017,5.11214 -10.69762,5.11214 -8.52023,0 -11.78632,-4.73346 -11.78632,-11.36031 0,-6.76885 3.50276,-11.64431 11.83365,-11.64431 4.40212,0 8.23622,1.89338 10.46095,5.25414 l 6.1535,-6.10616 c -3.97611,-4.82813 -9.41959,-7.28953 -16.66178,-7.28953 -13.58503,0 -21.15857,8.37823 -21.15857,19.78587 0,11.45498 7.33686,19.50186 21.11124,19.50186 6.72151,0 12.78034,-2.84008 16.75645,-7.3842 z"
               data-paper-data="{&quot;glyphName&quot;:&quot;C&quot;,&quot;glyphIndex&quot;:3,&quot;word&quot;:1}"
               id="path4"
               style="fill:#ffffff;stroke-width:2.11293" /><path
               d="m 254.90646,307.58447 h -9.23025 v 38.34103 h 9.23025 z m 30.67283,38.34103 c 0,0 -15.90443,-17.18246 -18.50783,-19.26519 l 17.93982,-19.02851 h -12.73301 l -16.94579,18.93384 17.65581,19.35986 z"
               data-paper-data="{&quot;glyphName&quot;:&quot;K&quot;,&quot;glyphIndex&quot;:4,&quot;word&quot;:1}"
               id="path5"
               style="fill:#ffffff;stroke-width:2.11293" /><path
               d="m 319.66021,307.58447 -8.70957,11.40764 -2.17739,3.59743 h -0.0947 l -2.17739,-3.59743 -8.66223,-11.40764 h -11.54964 l 17.79781,22.62594 v 15.71509 h 9.27758 v -15.71509 l 17.79781,-22.62594 z"
               data-paper-data="{&quot;glyphName&quot;:&quot;Y&quot;,&quot;glyphIndex&quot;:5,&quot;lastGlyphOfWord&quot;:true,&quot;word&quot;:1}"
               id="path6"
               style="fill:#ffffff;stroke-width:2.11293" /><path
               d="M 383.23059,341.66539 H 357.5279 v -0.0947 l 3.31342,-3.26609 22.1526,-26.98073 v -3.73943 h -30.7675 v 4.26011 h 25.08734 v 0.0947 l -3.21875,3.21875 -22.34194,26.98073 v 3.78677 h 31.47752 z"
               data-paper-data="{&quot;glyphName&quot;:&quot;Z&quot;,&quot;glyphIndex&quot;:6,&quot;firstGlyphOfWord&quot;:true,&quot;fontStyleEffect&quot;:true,&quot;word&quot;:2}"
               id="path7"
               style="fill:#ffffff;stroke-width:2.11293" /><path
               d="m 423.22833,341.66539 h -24.14065 l 0.47335,-0.47335 v -11.83365 l -0.47335,-0.47335 h 21.86859 v -4.26011 h -21.86859 l 0.47335,-0.47335 v -11.83365 l -0.47335,-0.47335 h 24.14065 v -4.26011 h -28.16409 v 38.34103 h 28.16409 z"
               data-paper-data="{&quot;glyphName&quot;:&quot;E&quot;,&quot;glyphIndex&quot;:7,&quot;fontStyleEffect&quot;:true,&quot;word&quot;:2}"
               id="path8"
               style="fill:#ffffff;stroke-width:2.11293" /><path
               d="m 467.01285,307.58447 h -4.49679 v 30.81483 h -0.0947 l -2.79274,-4.30745 -19.97521,-26.50738 h -4.11811 v 38.34103 h 4.49679 v -30.81483 h 0.0947 l 2.93475,4.49679 19.8332,26.31804 h 4.11811 z"
               data-paper-data="{&quot;glyphName&quot;:&quot;N&quot;,&quot;glyphIndex&quot;:8,&quot;fontStyleEffect&quot;:true,&quot;word&quot;:2}"
               id="path9"
               style="fill:#ffffff;stroke-width:2.11293" /><path
               d="m 485,307.58447 h -4.49679 V 345.9255 H 485 Z"
               data-paper-data="{&quot;glyphName&quot;:&quot;I&quot;,&quot;glyphIndex&quot;:9,&quot;lastGlyphOfWord&quot;:true,&quot;fontStyleEffect&quot;:true,&quot;word&quot;:2}"
               id="path10"
               style="fill:#ffffff;stroke-width:2.11293" /></g><g
             data-paper-data="{&quot;selectedEffects&quot;:{&quot;container&quot;:&quot;&quot;,&quot;transformation&quot;:&quot;&quot;,&quot;pattern&quot;:&quot;&quot;},&quot;initialText&quot;:&quot;MZ&quot;,&quot;isIcon&quot;:&quot;true&quot;,&quot;iconType&quot;:&quot;initial&quot;,&quot;iconStyle&quot;:&quot;standalone&quot;,&quot;rawInitialId&quot;:543,&quot;monogramSpecial&quot;:&quot;melted-letters&quot;,&quot;bounds&quot;:{&quot;x&quot;:209.24675081708557,&quot;y&quot;:123.5538149442128,&quot;width&quot;:131.50649836582886,&quot;height&quot;:154.5317254592584},&quot;fillRule&quot;:&quot;nonzero&quot;,&quot;suitableAsStandaloneIcon&quot;:true}"
             id="g11"
             style="fill:#ffffff;stroke-width:2.11293"><path
               d="m 238.14418,123.55381 v 11.74441 H 300.575 l -37.86027,74.94789 7.10846,14.06239 45.2778,-90.092 v -10.66269 z m 102.60907,19.471 v 115.58973 h -12.98066 v -98.12765 l -49.45015,94.41888 h -7.72659 l -48.36843,-94.41888 v 98.12765 H 209.24676 V 143.02481 h 17.92568 l 47.28671,95.03701 48.36843,-95.03701 z m -92.5645,123.31632 12.98066,-25.96133 -6.7994,-13.28973 -21.47991,41.10544 v 9.89003 h 83.44713 v -11.74441 z"
               data-paper-data="{&quot;isPathIcon&quot;:true}"
               id="path11"
               style="fill:#ffffff;stroke-width:2.11293" /></g></g></g></g></g></svg>
